<svg viewBox="0 0 40 41" xmlns="http://www.w3.org/2000/svg" xml:space="preserve" fill-rule="evenodd" clip-rule="evenodd" stroke-linejoin="round" stroke-miterlimit="2"><path d="M0 20C0 8.954 8.954 0 20 0s20 8.954 20 20-8.954 20-20 20S0 31.046 0 20Z" fill="#9ed5df" fill-rule="nonzero"/><path d="m18.805 13.606.773-.774c.352-.316.879-.316 1.195 0l6.856 6.82c.316.352.316.879 0 1.196l-6.856 6.855c-.316.317-.843.317-1.195 0l-.773-.773a.916.916 0 0 1 0-1.231l4.254-4.043h-10.09c-.492 0-.844-.351-.844-.843v-1.125c0-.457.352-.844.844-.844h10.09l-4.254-4.008c-.317-.351-.352-.88 0-1.23Z" fill="#13384a" fill-rule="nonzero"/></svg>
