<svg width="100%" height="100%" viewBox="0 0 40 41" version="1.1" xmlns="http://www.w3.org/2000/svg" xmlns:xlink="http://www.w3.org/1999/xlink" xml:space="preserve" xmlns:serif="http://www.serif.com/" style="fill-rule:evenodd;clip-rule:evenodd;stroke-linejoin:round;stroke-miterlimit:2;">
    <path d="M0,20C0,8.954 8.954,0 20,0C31.046,0 40,8.954 40,20C40,31.046 31.046,40 20,40C8.954,40 0,31.046 0,20Z" style="fill-rule:nonzero;"/>
    <path d="M18.805,13.606L19.578,12.832C19.93,12.516 20.457,12.516 20.773,12.832L27.629,19.652C27.945,20.004 27.945,20.531 27.629,20.848L20.773,27.703C20.457,28.02 19.93,28.02 19.578,27.703L18.805,26.93C18.49,26.583 18.49,26.046 18.805,25.699L23.059,21.656L12.969,21.656C12.477,21.656 12.125,21.305 12.125,20.813L12.125,19.688C12.125,19.231 12.477,18.844 12.969,18.844L23.059,18.844L18.805,14.836C18.488,14.485 18.453,13.956 18.805,13.606Z" style="fill:rgb(64,195,153);fill-rule:nonzero;"/>
</svg>
