<svg width="100%" height="100%" viewBox="0 0 280 240" version="1.1" xmlns="http://www.w3.org/2000/svg" xmlns:xlink="http://www.w3.org/1999/xlink" xml:space="preserve" xmlns:serif="http://www.serif.com/" style="fill-rule:evenodd;clip-rule:evenodd;stroke-linejoin:round;stroke-miterlimit:2;">
    <g transform="matrix(-1,0,0,1,332.885,-50.1493)">
        <path d="M203.84,63.32C200.72,56.46 208.73,48.06 215.74,50.62C219.04,51.89 221.4,54.67 223.85,57.09C258.86,92.12 293.88,127.12 328.89,162.14C331.15,164.51 333.35,167.57 332.8,171.03C332.23,174.96 329.03,177.7 326.4,180.37C291.21,215.53 256.05,250.71 220.87,285.88C218.71,287.94 216.11,289.86 212.99,289.91C207.87,289.66 203.33,285.12 203.09,280C203.2,275.85 206.38,272.83 209.11,270.1C238.96,240.09 268.78,210.04 298.61,180C220.73,180 142.84,179.99 64.95,180.01C61.95,179.99 58.73,179.52 56.35,177.53C52.09,173.74 52.1,166.26 56.36,162.47C59.89,159.56 64.73,160.01 68.99,159.99C145.53,160 222.07,160 298.61,159.99C269.44,130.61 240.25,101.25 211.08,71.87C208.5,69.18 205.49,66.74 203.84,63.32Z" style="fill:rgb(19,56,74);fill-rule:nonzero;"/>
    </g>
</svg>
