<?xml version="1.0" encoding="UTF-8" standalone="no"?>
<!DOCTYPE svg PUBLIC "-//W3C//DTD SVG 1.1//EN" "http://www.w3.org/Graphics/SVG/1.1/DTD/svg11.dtd">
<svg width="100%" height="100%" viewBox="0 0 512 512" version="1.1" xmlns="http://www.w3.org/2000/svg" xmlns:xlink="http://www.w3.org/1999/xlink" xml:space="preserve" xmlns:serif="http://www.serif.com/" style="fill-rule:evenodd;clip-rule:evenodd;stroke-linejoin:round;stroke-miterlimit:2;">
    <g transform="matrix(1,0,0,-1,0,512)">
        <path d="M256,0C115.563,0 -0,115.563 0,256C0,396.437 115.563,512 256,512C396.437,512 512,396.437 512,256C512,115.563 396.437,0 256,0ZM135,241C125.6,231.6 125.6,216.4 135,207.1C144.4,197.8 159.6,197.7 168.9,207.1L255.9,294.1L342.9,207.1C352.3,197.7 367.5,197.7 376.8,207.1C386.1,216.5 386.2,231.7 376.8,241L273,345C263.6,354.4 248.4,354.4 239.1,345L135,241Z" style="fill-rule:nonzero;"/>
    </g>
</svg>
