<svg viewBox="0 0 560 560" xmlns="http://www.w3.org/2000/svg" xml:space="preserve" fill-rule="evenodd" clip-rule="evenodd" stroke-linejoin="round" stroke-miterlimit="2"><path d="M262.48.677c30.12-2.31 60.5 1.46 89.73 8.78 26.08 7.06 51.39 17.41 74.34 31.74 34.6 21.34 64.15 50.47 86.91 84.08 11.76 17.03 20.71 35.85 28.17 55.11 21.35 55.69 23.94 118.27 7.68 175.62-6.34 22.39-15.59 43.88-26.84 64.23-18.46 30.8-42.33 58.41-70.57 80.63-45.28 35.87-102.31 55.74-159.84 58.35-14.59 1.24-29.24.04-43.75-1.5-46.06-5.19-91.03-21.55-128.94-48.35-31.64-22.29-58.41-51.25-78.84-84.08-31.25-51.92-45.57-114.06-38.94-174.39 2.36-25.76 8.9-51.05 18.39-75.08 6.47-15.57 13.5-31.03 22.96-45.03 31.71-49.65 78.69-90.04 133.92-111.18C204.2 8.947 233.2 2.557 262.48.677m.97 34.99c-41.1 3.2-81.63 16-116.32 38.42-24.64 16.03-46.34 36.5-63.88 60.08-28.62 38.17-45.58 85.03-47.8 132.68-3.56 59.63 16.11 120.34 54.01 166.52 14.49 18.11 31.64 34.06 50.62 47.36 24.7 17.78 53.24 29.92 82.76 37.04 18.32 4.69 37.25 6.1 56.09 7.01 38.97-.45 78.03-9.28 112.79-27.09 9.73-4.49 18.7-10.47 27.5-16.55 45.1-31.43 79.63-78.09 95.32-130.89 10.59-34.64 12.88-71.62 7.52-107.4-6.44-42.46-24.32-83.25-51.57-116.49-17.92-22.51-40.01-41.57-64.54-56.56-30.47-18.08-64.86-29.49-100.1-33.18-14.06-1.66-28.29-2.24-42.4-.95Z" fill="#008b40" fill-rule="nonzero"/><path d="M367.9 202.777c4.13-3.99 8.13-8.87 14.04-10.13 9.49-1.93 18.6 6.19 20.28 15.2 1.01 6.02-2.67 11.5-6.74 15.54-45.84 45.84-91.68 91.69-137.53 137.52-3.28 3.16-7.34 6.07-12.03 6.35-5.16.52-9.79-2.65-13.48-5.9-22.88-22.83-45.71-45.71-68.58-68.55-4.13-4.08-7.49-9.89-6.05-15.87 2.15-8.6 10.95-16.2 20.15-14.28 4.45.91 7.91 4.09 11.06 7.16 18.62 18.28 37.28 36.53 55.92 54.78 41.19-40.4 81.9-81.29 122.96-121.82Z" fill="#008b40" fill-rule="nonzero"/></svg>
