<?xml version="1.0" encoding="UTF-8" standalone="no"?>
<!DOCTYPE svg PUBLIC "-//W3C//DTD SVG 1.1//EN" "http://www.w3.org/Graphics/SVG/1.1/DTD/svg11.dtd">
<svg width="100%" height="100%" viewBox="0 0 20 21" version="1.1" xmlns="http://www.w3.org/2000/svg" xmlns:xlink="http://www.w3.org/1999/xlink" xml:space="preserve" xmlns:serif="http://www.serif.com/" style="fill-rule:evenodd;clip-rule:evenodd;stroke-linejoin:round;stroke-miterlimit:2;">
    <g transform="matrix(1,0,0,1,0,-0.422852)">
        <path d="M13.906,8.743C14.141,8.509 14.57,8.509 14.805,8.743C15.039,8.978 15.039,9.407 14.805,9.642L10.43,14.017C10.313,14.134 10.156,14.173 10,14.173C9.805,14.173 9.648,14.134 9.531,14.017L5.156,9.642C4.922,9.407 4.922,8.978 5.156,8.743C5.391,8.509 5.82,8.509 6.055,8.743L10,12.689L13.906,8.743ZM10,0.423C15.508,0.423 20,4.915 20,10.423C20,15.97 15.508,20.423 10,20.423C4.453,20.423 0,15.97 0,10.423C0,4.915 4.453,0.423 10,0.423ZM10,19.173C14.805,19.173 18.75,15.267 18.75,10.423C18.75,5.618 14.805,1.673 10,1.673C5.156,1.673 1.25,5.618 1.25,10.423C1.25,15.267 5.156,19.173 10,19.173Z" style="fill:rgb(19,56,74);fill-rule:nonzero;"/>
    </g>
</svg>
