<!-- <svg viewBox="0 0 480 480" xmlns="http://www.w3.org/2000/svg" xml:space="preserve" fill-rule="evenodd" clip-rule="evenodd" stroke-linejoin="round" stroke-miterlimit="2"><path d="M223.45.637c39.62-2.98 79.81 4.6 116.08 20.67 22.35 10.3 43.06 24.14 61.25 40.71 18.23 16.38 33.57 35.77 46.46 56.58 19.25 33.89 31.03 72.25 32.35 111.29 2.03 42.95-8.28 86.2-28.48 124.08-2.92 6.18-6.91 11.73-10.5 17.51-17.03 25.41-38.53 47.91-63.65 65.43-30.13 21.63-65.81 35.03-102.45 40.25-40.79 6.17-83.05 1.18-121.55-13.52-26.51-9.85-50.71-25.26-71.88-43.9-25.65-23.18-47.21-51.33-60.78-83.24C6.29 304.607-.79 269.647.07 234.807c.56-32.75 8.12-65.32 21.81-95.07 5.92-13.67 13.56-26.54 22.36-38.55 17.6-24.73 39.84-46.11 65.21-62.78 33.83-22.27 73.69-34.89 114-37.77m1.1 30.08c-14.09.69-27.87 3.86-41.54 7.14-22.67 6.61-44.46 16.53-63.67 30.36-28.66 20.3-52.24 47.78-67.91 79.22-15.44 31.66-23.06 67.19-21.18 102.41 1.37 32.53 10.92 64.51 26.7 92.94 14.97 25.94 35.17 48.95 59.39 66.63 35.64 26.61 80.24 40.32 124.58 40.39 22.66-.57 45.37-3.9 66.83-11.35 38-12.5 71.61-37.05 96.45-68.26 26.75-33.16 42.62-74.83 45.25-117.32 2.89-44.94-9.23-90.78-34.24-128.25-21.81-32.64-52.46-59.56-88.34-75.71-15.7-6.95-32.22-12.02-49.07-15.31-17.58-2.84-35.46-4.74-53.25-2.89Z" fill="#13384a" fill-rule="nonzero"/><path d="M233.4 128.547c7.05-2.38 15.03-.57 20.85 3.91 5.07 4.27 7.63 10.9 8.04 17.4-.29 6.96-3.45 13.93-9.09 18.16-5.28 3.51-12.04 5.27-18.27 3.52-7.52-1.49-14.05-7.21-16.12-14.66-4.13-11.24 2.71-25.5 14.59-28.33ZM191.88 213.907c3.08-3.13 7.68-3.92 11.89-4.06 11.4-.01 22.8.01 34.19-.01 4.97.15 10.49 1.35 13.74 5.44 2.57 3.22 3.23 7.52 3.23 11.53-.02 34.34 0 68.69-.01 103.04 9.33 0 18.67 0 28-.01 4.5.07 9.5.83 12.74 4.27 5.39 5.58 5.43 15.1.52 20.98-3.22 3.79-8.48 4.71-13.2 4.77-28.69-.02-57.39-.02-86.08 0-4.73-.05-9.99-.97-13.23-4.74-4.92-5.88-4.92-15.41.48-20.99 3.23-3.47 8.26-4.22 12.76-4.29 9.34.01 18.67.01 28.01.01v-90c-7.02-.02-14.04.02-21.05 0-4.46-.12-9.37-1.04-12.5-4.51-5.2-5.92-5.18-15.83.51-21.43Z" fill="#13384a" fill-rule="nonzero"/></svg> -->

<svg viewBox="0 0 480 480" xmlns="http://www.w3.org/2000/svg" xml:space="preserve" fill-rule="evenodd" clip-rule="evenodd" stroke-linejoin="round" stroke-miterlimit="2" fill="#ffffff">
  <path d="M223.45.637c39.62-2.98 79.81 4.6 116.08 20.67 22.35 10.3 43.06 24.14 61.25 40.71 18.23 16.38 33.57 35.77 46.46 56.58 19.25 33.89 31.03 72.25 32.35 111.29 2.03 42.95-8.28 86.2-28.48 124.08-2.92 6.18-6.91 11.73-10.5 17.51-17.03 25.41-38.53 47.91-63.65 65.43-30.13 21.63-65.81 35.03-102.45 40.25-40.79 6.17-83.05 1.18-121.55-13.52-26.51-9.85-50.71-25.26-71.88-43.9-25.65-23.18-47.21-51.33-60.78-83.24C6.29 304.607-.79 269.647.07 234.807c.56-32.75 8.12-65.32 21.81-95.07 5.92-13.67 13.56-26.54 22.36-38.55 17.6-24.73 39.84-46.11 65.21-62.78 33.83-22.27 73.69-34.89 114-37.77m1.1 30.08c-14.09.69-27.87 3.86-41.54 7.14-22.67 6.61-44.46 16.53-63.67 30.36-28.66 20.3-52.24 47.78-67.91 79.22-15.44 31.66-23.06 67.19-21.18 102.41 1.37 32.53 10.92 64.51 26.7 92.94 14.97 25.94 35.17 48.95 59.39 66.63 35.64 26.61 80.24 40.32 124.58 40.39 22.66-.57 45.37-3.9 66.83-11.35 38-12.5 71.61-37.05 96.45-68.26 26.75-33.16 42.62-74.83 45.25-117.32 2.89-44.94-9.23-90.78-34.24-128.25-21.81-32.64-52.46-59.56-88.34-75.71-15.7-6.95-32.22-12.02-49.07-15.31-17.58-2.84-35.46-4.74-53.25-2.89Z" fill-rule="nonzero"/>
  <path d="M233.4 128.547c7.05-2.38 15.03-.57 20.85 3.91 5.07 4.27 7.63 10.9 8.04 17.4-.29 6.96-3.45 13.93-9.09 18.16-5.28 3.51-12.04 5.27-18.27 3.52-7.52-1.49-14.05-7.21-16.12-14.66-4.13-11.24 2.71-25.5 14.59-28.33ZM191.88 213.907c3.08-3.13 7.68-3.92 11.89-4.06 11.4-.01 22.8.01 34.19-.01 4.97.15 10.49 1.35 13.74 5.44 2.57 3.22 3.23 7.52 3.23 11.53-.02 34.34 0 68.69-.01 103.04 9.33 0 18.67 0 28-.01 4.5.07 9.5.83 12.74 4.27 5.39 5.58 5.43 15.1.52 20.98-3.22 3.79-8.48 4.71-13.2 4.77-28.69-.02-57.39-.02-86.08 0-4.73-.05-9.99-.97-13.23-4.74-4.92-5.88-4.92-15.41.48-20.99 3.23-3.47 8.26-4.22 12.76-4.29 9.34.01 18.67.01 28.01.01v-90c-7.02-.02-14.04.02-21.05 0-4.46-.12-9.37-1.04-12.5-4.51-5.2-5.92-5.18-15.83.51-21.43Z" fill-rule="nonzero"/>
</svg>