<svg width="100%" height="100%" viewBox="0 0 12 16" version="1.1" xmlns="http://www.w3.org/2000/svg" xmlns:xlink="http://www.w3.org/1999/xlink" xml:space="preserve" xmlns:serif="http://www.serif.com/" style="fill-rule:evenodd;clip-rule:evenodd;stroke-linejoin:round;stroke-miterlimit:2;">
    <path d="M8.5,6C8.5,7.406 7.375,8.5 6,8.5C4.594,8.5 3.5,7.406 3.5,6C3.5,4.625 4.594,3.5 6,3.5C7.375,3.5 8.5,4.625 8.5,6ZM6,5C5.438,5 5,5.469 5,6C5,6.563 5.438,7 6,7C6.531,7 7,6.563 7,6C7,5.469 6.531,5 6,5ZM12,6C12,8.75 8.344,13.594 6.719,15.625C6.344,16.094 5.625,16.094 5.25,15.625C3.625,13.594 0,8.75 0,6C0,2.688 2.656,0 6,0C9.313,0 12,2.688 12,6ZM6,1.5C3.5,1.5 1.5,3.531 1.5,6C1.5,6.406 1.625,7 1.969,7.813C2.281,8.563 2.75,9.438 3.281,10.313C4.188,11.75 5.219,13.125 6,14.125C6.75,13.125 7.781,11.75 8.688,10.313C9.219,9.438 9.688,8.563 10,7.813C10.344,7 10.5,6.406 10.5,6C10.5,3.531 8.469,1.5 6,1.5Z" style="fill:white;fill-rule:nonzero;"/>
</svg>
