<svg width="100%" height="100%" viewBox="0 0 16 16" version="1.1" xmlns="http://www.w3.org/2000/svg" xmlns:xlink="http://www.w3.org/1999/xlink" xml:space="preserve" xmlns:serif="http://www.serif.com/" style="fill-rule:evenodd;clip-rule:evenodd;stroke-linejoin:round;stroke-miterlimit:2;">
    <g transform="matrix(1,0,0,1,0,-1.01692)">
        <path d="M15,11.031C15.719,11.344 16.125,12.125 15.906,12.906L15.25,15.75C15.125,16.5 14.469,17 13.688,17C6.125,17 0,10.875 0,3.313C0,2.531 0.5,1.875 1.25,1.719L4.094,1.063C4.875,0.875 5.656,1.281 5.969,2L7.313,5.125C7.594,5.781 7.375,6.563 6.844,7.031L5.781,7.875C6.594,9.25 7.75,10.406 9.156,11.219L10,10.188C10.469,9.625 11.25,9.406 11.938,9.719L15,11.031ZM14.469,12.563C14.5,12.5 14.469,12.438 14.406,12.375L11.344,11.063C11.281,11.031 11.219,11.063 11.188,11.094L9.938,12.625C9.719,12.906 9.313,12.969 9,12.813C6.906,11.781 5.188,10.063 4.156,7.969C4,7.656 4.094,7.281 4.344,7.063L5.875,5.813C5.938,5.781 5.938,5.719 5.906,5.656L4.594,2.594C4.563,2.563 4.531,2.5 4.469,2.5L4.438,2.531L1.594,3.188C1.531,3.188 1.469,3.25 1.469,3.313C1.469,10.031 6.969,15.5 13.688,15.5C13.75,15.5 13.813,15.438 13.813,15.406L14.469,12.563Z" style="fill:white;fill-rule:nonzero;"/>
    </g>
</svg>
