<svg xmlns="http://www.w3.org/2000/svg" viewBox="0 0 340 340"><g id="Layer_2" data-name="Layer 2"><g id="PRINT"><path d="M340,170v63.75A21.26,21.26,0,0,1,318.75,255H297.5v63.75A21.26,21.26,0,0,1,276.25,340H63.75A21.26,21.26,0,0,1,42.5,318.75V255H21.25A21.26,21.26,0,0,1,0,233.75V170a42.52,42.52,0,0,1,42.5-42.5h255A42.54,42.54,0,0,1,340,170ZM85,106.25H42.5v-85A21.26,21.26,0,0,1,63.75,0H246.23a21.25,21.25,0,0,1,15,6.23l30,30.05a21.22,21.22,0,0,1,6.23,15v55H255V60.1L237.4,42.5H85Zm170,127.5H85V297.5H255Zm47.81-53.13a15.94,15.94,0,1,0-15.93,15.94A15.93,15.93,0,0,0,302.81,180.62Z"/></g></g></svg>