<svg width="100%" height="100%" viewBox="0 0 14 16" version="1.1" xmlns="http://www.w3.org/2000/svg" xmlns:xlink="http://www.w3.org/1999/xlink" xml:space="preserve" xmlns:serif="http://www.serif.com/" style="fill-rule:evenodd;clip-rule:evenodd;stroke-linejoin:round;stroke-miterlimit:2;">
    <g transform="matrix(-1,-1.22465e-16,1.22465e-16,-1,14,16)">
        <path d="M0,6.75C0,4.678 1.678,3 3.75,3L4,3C4.553,3 5,3.447 5,4C5,4.553 4.553,5 4,5L3.75,5C2.784,5 2,5.784 2,6.75L2,7L4,7C5.103,7 6,7.897 6,9L6,11C6,12.103 5.103,13 4,13L2,13C0.897,13 0,12.103 0,11L0,6.75ZM8,6.75C8,4.678 9.678,3 11.75,3L12,3C12.553,3 13,3.447 13,4C13,4.553 12.553,5 12,5L11.75,5C10.784,5 10,5.784 10,6.75L10,7L12,7C13.103,7 14,7.897 14,9L14,11C14,12.103 13.103,13 12,13L10,13C8.897,13 8,12.103 8,11L8,6.75Z" style="fill:rgb(238,111,92);fill-rule:nonzero;"/>
    </g>
</svg>
