<!-- <svg viewBox="0 0 525 460" xmlns="http://www.w3.org/2000/svg" xml:space="preserve" fill-rule="evenodd" clip-rule="evenodd" stroke-linejoin="round" stroke-miterlimit="2"><path d="M254.442.624c12.49-1.98 25.6.84 36.48 7.2 9.07 5.35 16.29 13.41 21.66 22.38 65.24 111.74 130.56 223.42 195.79 335.16 5.25 9.66 12.26 18.63 14.88 29.5 3.99 15.29-.02 32.26-9.85 44.55-7.26 9.04-17.54 15.69-28.89 18.21-5.79 1.32-11.75 1.84-17.68 1.65-137.98-.01-275.96.01-413.94 0-13.94-.31-28-5.47-37.73-15.66-15.6-15.16-19.89-40.67-9.45-59.88 9.9-17.36 20.15-34.53 30.18-51.82 58.75-100.57 117.56-201.11 176.27-301.71 8.87-15.4 24.35-27.41 42.28-29.58m3.7 32.38c-7.26 1.09-13.16 6.3-16.65 12.55-68.69 117.62-137.44 235.22-206.14 352.84-4.33 6.79-2.69 15.85 2.16 21.91 3.71 4.42 9.71 6.07 15.29 6.1 139.71-.01 279.42-.01 419.13 0 4.91-.05 10.09-1.26 13.83-4.61 3.65-3.25 5.4-8.1 6.11-12.81.67-5.83-1.56-11.53-4.76-16.3-67.64-115.71-135.25-231.43-202.86-347.15-5.19-8.97-15.75-14.53-26.11-12.53Z" fill="#d4351c" fill-rule="nonzero"/><path d="M257.142 132.084c5.74-1.81 12.5-.55 16.92 3.62 3.43 3.4 4.65 8.4 4.71 13.1.03 42.02-.02 84.05.02 126.07.16 5.39-.56 11.38-4.48 15.45-5.95 6.05-16.32 6-22.9.99-4.12-3.49-5.52-9.16-5.45-14.36.01-40.68 0-81.36 0-122.03.04-4.64-.38-9.45 1.28-13.87 1.52-4.4 5.31-7.98 9.9-8.97ZM255.162 337.464c7.02-2.51 14.85-.72 21.08 3.03 6.82 4.32 10.26 12.49 10.61 20.32-.44 6.46-2.67 13.09-7.41 17.68-4.49 4.22-10.66 6.15-16.67 6.78-10.07-.02-20.42-6.23-23.32-16.23-4.83-12.41 2.49-28.32 15.71-31.58Z" fill="#d4351c" fill-rule="nonzero"/></svg> -->

<svg viewBox="0 0 525 460" xmlns="http://www.w3.org/2000/svg" xml:space="preserve" fill-rule="evenodd" clip-rule="evenodd" stroke-linejoin="round" stroke-miterlimit="2" style="fill: #B45244;">
  <path d="M254.442.624c12.49-1.98 25.6.84 36.48 7.2 9.07 5.35 16.29 13.41 21.66 22.38 65.24 111.74 130.56 223.42 195.79 335.16 5.25 9.66 12.26 18.63 14.88 29.5 3.99 15.29-.02 32.26-9.85 44.55-7.26 9.04-17.54 15.69-28.89 18.21-5.79 1.32-11.75 1.84-17.68 1.65-137.98-.01-275.96.01-413.94 0-13.94-.31-28-5.47-37.73-15.66-15.6-15.16-19.89-40.67-9.45-59.88 9.9-17.36 20.15-34.53 30.18-51.82 58.75-100.57 117.56-201.11 176.27-301.71 8.87-15.4 24.35-27.41 42.28-29.58m3.7 32.38c-7.26 1.09-13.16 6.3-16.65 12.55-68.69 117.62-137.44 235.22-206.14 352.84-4.33 6.79-2.69 15.85 2.16 21.91 3.71 4.42 9.71 6.07 15.29 6.1 139.71-.01 279.42-.01 419.13 0 4.91-.05 10.09-1.26 13.83-4.61 3.65-3.25 5.4-8.1 6.11-12.81.67-5.83-1.56-11.53-4.76-16.3-67.64-115.71-135.25-231.43-202.86-347.15-5.19-8.97-15.75-14.53-26.11-12.53Z" fill-rule="nonzero"/>
  <path d="M257.142 132.084c5.74-1.81 12.5-.55 16.92 3.62 3.43 3.4 4.65 8.4 4.71 13.1.03 42.02-.02 84.05.02 126.07.16 5.39-.56 11.38-4.48 15.45-5.95 6.05-16.32 6-22.9.99-4.12-3.49-5.52-9.16-5.45-14.36.01-40.68 0-81.36 0-122.03.04-4.64-.38-9.45 1.28-13.87 1.52-4.4 5.31-7.98 9.9-8.97ZM255.162 337.464c7.02-2.51 14.85-.72 21.08 3.03 6.82 4.32 10.26 12.49 10.61 20.32-.44 6.46-2.67 13.09-7.41 17.68-4.49 4.22-10.66 6.15-16.67 6.78-10.07-.02-20.42-6.23-23.32-16.23-4.83-12.41 2.49-28.32 15.71-31.58Z" fill-rule="nonzero"/>
</svg>